<?xml version="1.0" encoding="UTF-8"?>
<svg id="Layer_1" xmlns="http://www.w3.org/2000/svg" version="1.1" viewBox="0 0 3000 681">
  <!-- Generator: Adobe Illustrator 30.4.0, SVG Export Plug-In . SVG Version: 2.1.4 Build 226)  -->
  <defs>
    <style>
      .st0 {
        fill: #1d252c;
      }

      .st1 {
        fill: #5ab4b4;
      }

      .st2 {
        fill: #fff;
      }
    </style>
  </defs>
  <g>
    <polygon class="st1" points="2946.59 393.54 2741.86 393.52 2741.88 556.93 2985.63 556.89 2985.64 629.66 2667 629.57 2667 92.17 2985.64 92.08 2985.63 164.85 2741.88 164.8 2741.86 321.89 2946.59 321.85 2946.59 393.54"/>
    <g>
      <path class="st1" d="M2509.51,164.18l-51.69,37.34-58.37,42.9-55.75,41.36-60.52,44.82-37.51,26.74c-4.87,3.47-10.46,3.48-15.33,0l-37.51-26.74-60.5-44.83-50.37-37.29-64.33-47.43-53.14-38.01-.93,37.28-.58,234.21c-1.54,3.78-5.95,6.48-9.03,8.79l-25.34,19.04c-1.24.93-3.59,1.22-4.48.28-.73-.78-1.95-2.84-1.98-4.38l-.85-43.32v-243.08l.71-43.91,1.08-9.5c.36-3.12.96-5.78,2.51-7.41,2.21-2.32,4.91-2.07,8-2.12l27.93-.45,69.56,49.67,111.27,81.63,91.57,67.63c2.98,2.2,5.93,1.66,8.79-.45l91.54-67.62,110.66-81.19,69.56-49.67c11.27-1.2,32.91-.57,35.92,2.57,1.6,1.67,2.21,4.24,2.54,7.42l.98,9.52.62,43.81.69,133.14c-1.23,2.09-3.35,4.25-5.17,5.61l-30.8,22.96c-1.22.91-3.61-.35-3.92-1.39-1.64-5.45-1.01-10.9-1.31-16.54l-.81-15.16-.53-95.57-.9-23.18.09-16.92c0-.87-1.17-1.43-2.37-.56h0Z"/>
      <path class="st0" d="M2412.43,635.96h-348.89l-.04-14.79c-.03-10.13,8.78-17.8,18.87-18.95h78.04l.1-23.19h154.99l.1,23.2h78.02c10.25,1.13,17.84,8.83,19.02,18.92l-.22,14.8h0Z"/>
      <g>
        <path class="st0" d="M1924.4,496.07l33.44-25.83c1.94-.11,3.37-.07,5.29.54l.07,47.15h549.65l.04-145.16c.89-2.62,1.89-4.44,3.47-6.35l33.43-25.81c1.97-.11,3.34-.12,5.35.59l-.23,205.1c-.01,9.58-9.15,18.99-19.03,18.99h-595.74c-10.58.01-17.98-9.62-19.25-18.73l.07-43.41c0-2.61,1.92-5.1,3.42-7.07h.02ZM2250.17,542.68c0-6.71-5.44-12.14-12.16-12.14s-12.16,5.44-12.16,12.14,5.44,12.14,12.16,12.14,12.16-5.44,12.16-12.14Z"/>
        <ellipse class="st2" cx="2238.01" cy="542.68" rx="12.16" ry="12.14"/>
      </g>
    </g>
  </g>
  <g>
    <polygon class="st0" points="1785.89 393.54 1581.16 393.52 1581.17 556.93 1824.92 556.89 1824.94 629.66 1506.29 629.57 1506.29 92.17 1824.94 92.08 1824.92 164.85 1581.17 164.8 1581.15 321.89 1785.88 321.85 1785.89 393.54"/>
    <polygon class="st0" points="1303.67 629.52 1229.76 629.7 1229.8 165.92 1082.03 165.89 1082.06 92.09 1450.31 92.09 1450.33 165.89 1303.62 165.92 1303.67 629.52"/>
    <g>
      <g>
        <path class="st2" d="M638.45,37.1l37.5,60.9-60.97,37.46-37.5-60.9,60.97-37.46h0ZM646.86,68.77l-15.49,9.62,7.96,12.8,15.49-9.62-7.96-12.8ZM616.26,86.69l-15.49,9.62,7.96,12.8,15.49-9.62-7.96-12.8Z"/>
        <polygon class="st0" points="646.86 68.77 654.82 81.57 639.33 91.19 631.37 78.39 646.86 68.77"/>
        <polygon class="st0" points="616.26 86.69 624.22 99.49 608.73 109.11 600.77 96.31 616.26 86.69"/>
      </g>
      <g>
        <path class="st0" d="M734.34,214.55c-.87-1.28-4.74-2.95-5.74-2.17l-11.51,8.92c-1.75,1.35-7.09,1.39-7.11,4.66s2.73,6.87,4.57,9.88l43.2,70.52c7.64,12.48,14.38,24.44,20.3,37.76,10.64,23.92,7.15,47.44,12.15,52.06,1.41,1.31,4.77.49,6.44.49h19.47c1.79-.01,5.27.89,6.96-.52,2.73-2.35,2.7-7.04,3.04-10.57,1.37-14.43,3.24-28.18,9.14-41.46l20.3-37.76,43.2-70.52c1.87-3.06,4.51-6.48,4.59-9.9.07-2.95-4.98-3.13-6.63-4.42l-11.4-8.97c-1.37-1.08-4.55.19-5.65,1.68-.24-8.49-5.08-8.33,1.1-18.51l6.41-10.55c1.99-3.27.51-6.54-2.77-8.4-8.63-4.9-11.78-14.63-6.96-23.54,11.11-20.54,23.26-40.07,36.28-59.35,2.32-3.43,6.29-4.54,10-3.8,3.01.34,5.14-.65,6.66-3.12l41.12-66.66,81.16,49.85-43.38,70.53c-.77,1.81,1.79,4.5,2.59,5.51,2.24,2.8,2.9,5.61,1.03,8.6l-34.53,55c-4.16,6.63-10.62,12.54-18.66,12.84l-12.98-4.09c-7.81,5.47-7.54,15.01-19.55,19.43-3.28,1.21-6.12,4.55-8.06,7.67l-40.4,64.91-20.2,35.73c-7.14,12.64-9.8,26.4-10.07,40.89-.12,6.47,1.06,11.06,5.36,16.37l6.64,8.21-.24,54.48-.87,18.07c-.26,5.48-.73,12.3-4.48,16.34-3.28,3.54-5.96,6.77-6.03,12.06l-.33,24.89-.68,68.8-.89,12.72c-.44,6.24-4.11,10.68-10.31,10.71-5.33.03-9.39-4.49-9.83-10.76l-.97-13.82-.25-96.54c-3.82-1.12-7.44.23-10.51.23h-16.88c-3.09,0-6.69-1.33-10.51-.24l-.25,96.55-.97,13.82c-.44,6.27-4.49,10.79-9.83,10.76-6.2-.03-9.87-4.47-10.31-10.71l-.89-12.72-.68-68.8-.33-24.89c-.07-5.29-2.75-8.53-6.03-12.06-3.75-4.04-4.21-10.86-4.48-16.34l-.87-18.07-.24-54.49,7.14-8.78c4.11-5.05,4.93-9.65,4.84-15.79-.21-14.51-2.86-28.28-10.05-40.9l-22.2-38.98-38.39-61.66c-1.95-3.13-4.76-6.42-8.06-7.67-11.35-4.3-11.37-12.28-19-19.39l-13.6,4.12c-8.38.13-15.28-5.95-19.65-12.91l-35.43-56.47c.75-4.79,3.53-7.62,6.14-11.77l-43.94-71.38,81.16-49.86,41.11,66.66c1.56,2.44,3.61,3.46,6.67,3.11,3.7-.74,7.67.37,9.99,3.8,13.03,19.28,25.17,38.81,36.28,59.35,4.82,8.91,1.68,18.64-6.96,23.54-3.28,1.86-4.76,5.13-2.77,8.4l6.41,10.55c6.18,10.18,1.34,10.02,1.82,18.83h.04ZM638.45,37.1l-60.97,37.46,37.5,60.9,60.97-37.46-37.5-60.9h0ZM974.83,37.07l-37.53,60.96,61.03,37.49,37.53-60.96-61.03-37.49h0ZM807.14,482.82c16.99-.38,28.47-15.73,28.14-30.76s-12.23-29.82-28.64-29.79-28.81,15.16-28.63,30.85,12.2,30.08,29.13,29.7Z"/>
        <path class="st1" d="M734.34,214.55c23.25,34.28,44.21,69.75,65.51,105.52l6.81,13.18,6.81-13.15,59.28-96.48,6.92-9.39c1.1-1.49,4.28-2.75,5.65-1.68l11.4,8.97c-2.35,1.94-4.09,3.87-5.77,6.59l-49.1,79.26-14.81,27.52c-5.93,11.01-8.8,22.99-10.96,35.43l.04,26.34h-19.47l.58-26.34c-2.16-12.44-5.03-24.42-10.96-35.43l-14.81-27.52-49.1-79.26c-1.69-2.72-3.42-4.65-5.27-6.81l11.51-8.92c1-.78,4.87.9,5.74,2.17h0Z"/>
        <g>
          <path class="st2" d="M974.83,37.07l61.03,37.49-37.53,60.96-61.03-37.49,37.53-60.96h0ZM966.38,68.77l-7.92,12.84,15.57,9.59,7.92-12.84s-15.57-9.59-15.57-9.59ZM996.98,86.69l-7.92,12.84,15.57,9.59,7.92-12.84-15.57-9.59Z"/>
          <polygon class="st0" points="966.38 68.77 981.95 78.36 974.02 91.2 958.45 81.61 966.38 68.77"/>
          <polygon class="st0" points="996.98 86.69 1012.55 96.27 1004.63 109.11 989.05 99.53 996.98 86.69"/>
        </g>
        <g>
          <path class="st1" d="M815.09,508.92l-.52,88.48-.74,23.67c-.11,3.6-3.54,8.12-7.18,8.12s-7.07-4.53-7.18-8.12l-.74-23.67-.52-88.48h16.88Z"/>
          <path class="st2" d="M807.14,482.82c-16.93.38-28.96-14.81-29.13-29.7-.18-15.69,11.86-30.82,28.63-30.85s28.3,14.6,28.64,29.79-11.15,30.38-28.14,30.76ZM821.4,448.31c-2.07-6.88-7.7-13.17-15.84-12.47-8.38.72-14.53,9.14-14.29,17.12s6.16,15.62,14.3,16.33c10.29.89,18.88-10.86,15.84-20.98h-.01Z"/>
          <path class="st1" d="M821.4,448.31c3.05,10.12-5.55,21.87-15.84,20.98-8.14-.71-14.07-8.55-14.3-16.33s5.92-16.4,14.29-17.12c8.15-.7,13.77,5.58,15.84,12.47h.01Z"/>
        </g>
      </g>
    </g>
  </g>
  <path class="st0" d="M570.03,536.6c-21.09,50.66-64.87,82.73-119.09,90.64l-12.42,1.17-41.78.98-276.47-.22-101.9-.82c-5.67-.05-8.85-9.86-8.36-14.2.64-5.65-.97-10.07-.98-15.31l-.35-173.69v-183.34l.32-129.52c0-3.64,1.57-7.02,1.05-10.87-.28-2.07,1.26-7.21,4.41-7.21l426.75.12c30.02,7.93,46.69,17.62,68.25,38.47,12.66,12.25,22.42,25.86,29.97,41.78,12.74,26.88,13.81,48.38,12.16,77.8-1.82,32.43-14.4,63.24-36.81,86.7l-17.16,17.97c14.27,6.66,25.57,14.96,36.71,24.92,14.72,13.17,25.47,27.94,33.06,46.19,10.65,25.63,11.16,36.59,10.73,63.3-.26,16.01-1.94,30.37-8.09,45.14h0ZM409.9,344.76l17.72-1.11c12.33-.77,23.04-4.2,33.4-10.93,36.87-23.92,52.8-56.08,51.17-100.49-1.09-29.63-14.38-56.72-36.32-76.35-16.21-14.49-34.67-23.16-56.47-23.41l-54.55-.63-118.45-.41c-8.46-.03-15.99,1.32-24.36.72-5.56-.4-10.96.05-16.27,1.63-1.43,4.84-1.67,9.02-1.67,14.38l.11,180.91,1.3,9.5c1.32,9.68,12.78,4.78,23.09,7.53l99.38-.69,81.92-.65h0ZM165.09,132.15H46.91v457.43h118.18V132.15ZM442.58,588.02c29.6-.72,52.42-14.37,71.67-35.55,15.01-16.51,23.32-37.35,24.68-59.86,1.84-30.46-7.5-57.12-29.43-78.46-19.23-18.7-38.76-28.46-65.83-28.73l-62.98-.64c-43.42-.44-86.17-1.1-129.53-.08l-35.87.84c-4.13.1-8.93,1.99-9.6,6.18l-1.51,9.37.07,167.25c0,4.61,1.64,8.35.96,12.9-.59,4.02,2.88,6.78,6.96,6.89l32.65.88,158.12-.03,39.63-.96h0Z"/>
  <path class="st1" d="M135.58,545.32l-58.76-.26c-2.83-.01-3.51-3.94-3.62-5.61-.13-1.87.54-6.54,3.61-6.54l58.4-.02c2.74,0,3.61,4,3.61,5.66,0,2.12-.26,4.86-3.23,6.77h-.01Z"/>
  <path class="st1" d="M135.58,511.6l-58.76-.26c-2.83-.01-3.51-3.94-3.62-5.61-.13-1.87.54-6.54,3.61-6.54l58.4-.03c2.74,0,3.62,4,3.61,5.67,0,2.08-.26,4.85-3.23,6.76h-.01Z"/>
  <ellipse class="st1" cx="107.05" cy="395.64" rx="9.76" ry="9.75"/>
  <ellipse class="st1" cx="107.05" cy="348.21" rx="9.76" ry="9.75"/>
  <g>
    <path class="st1" d="M132.11,244.35c.66-15.89-12.75-24.28-11.17-29.07.57-1.72,2.96-4.72,5.48-3.64,11.16,4.77,17.47,16.31,17.82,27.88.39,12.66-3.44,23.46-13.3,31.64-11.08,9.19-26.62,11.55-40.41,5.14-11.7-5.44-21.07-16.96-22.35-31.57-1.36-15.42,11.64-34.66,19.47-33.76,4.23.49,4.35,6.81,2.69,9.7l-6.23,10.83c-4.88,8.5-4.27,17.89.95,26.09,4.8,7.52,13.45,10.29,23.17,9.85,13.01-.59,23.29-9.07,23.87-23.1h.01Z"/>
    <path class="st1" d="M110,235.99c-.29,2.45-2.87,4.71-4.39,4.5-2.21-.3-4.62-2.79-4.62-5.48l-.08-29.89c0-3.72,2.72-6.63,5.83-7.41l4.49,4.4-.16,24.82-1.08,9.06h.01Z"/>
  </g>
  <g>
    <path class="st1" d="M335.27,463.41l-57.85-.84-45.73-.68c-3.18-.05-4.42-3.24-4.41-5.67,0-2.03,1.15-5.78,4.5-5.77l126.94.33c8.29,1.79,15.61,6.63,23.96,7.72l9.36,1.23,32.24.19,10.27-10.23c3.44-3.43,9.16-5.72,14.25-5.4,9.96.63,20.91,10.53,20.29,23.47-.3,6.29-4.03,12.29-9.49,16.56-6.87,5.38-15.74,5.89-22.97.37l-12.33-11.97-36.59-.32c-13.12-.12-22.35-10.23-42.21-8.1l-10.23-.88h0ZM456.9,470.03c2.22-5.29-.42-8.79-3.27-11.42-3.66-3.37-7.25-3.91-11.19-.9-2.84,2.17-4.84,4.78-5.06,8.24-.19,2.92.91,6.28,3.79,8.03,5.21,3.18,13.34,1.78,15.74-3.95h-.01Z"/>
    <path class="st2" d="M456.9,470.03c-2.4,5.74-10.53,7.14-15.74,3.95-2.88-1.76-3.98-5.12-3.79-8.03.22-3.46,2.22-6.06,5.06-8.24,3.94-3.02,7.53-2.47,11.19.9,2.86,2.63,5.49,6.13,3.27,11.42h.01Z"/>
  </g>
  <g>
    <path class="st1" d="M412.87,565.99c-11.56-1.26-17.48-11.63-21-20.55-1.32-2.83-4.23-5.38-6.59-7.13-13.53-10.04-27.63-17.75-42.26-26.74l-56.11.52-44.67.33c-3.49.03-6.92-1.26-10.49-1.03-1.83.12-3.37-1.38-4.29-2.56-.71-.92-1.36-2.84.24-4.33,3.14-2.93,7.9-3.74,12.32-3.39l6.46-1.08,95.83-.08c3.21,0,6.25.14,8.93,1.8l44.2,27.47c2.16,1.34,4.46-.73,6.06-1.75,7.66-4.91,17.81-6.61,25.31-1.3,6.79,4.81,11.57,12.61,10.16,21.18-1.7,10.4-12.86,19.86-24.09,18.63h-.01ZM407.78,553.15c5.11,1,11.01,1.48,14.1-1.77,4.02-4.22,3.55-10.41.02-14.29-3.11-3.41-9.61-4.6-13.37-.48-4.06,4.44-3.55,11.09-.76,16.54h.01Z"/>
    <path class="st2" d="M407.78,553.15c-2.79-5.45-3.3-12.11.76-16.54,3.76-4.12,10.26-2.93,13.37.48,3.53,3.88,4,10.07-.02,14.29-3.09,3.25-9,2.78-14.1,1.77h-.01Z"/>
  </g>
  <g>
    <path class="st1" d="M244.93,303.88c-3.57,0-6.07-1.57-9.29-1.01-3.85.67-9.58-2.37-8.61-6.66.68-2.98,5.73-4.82,8.9-4.82l108.12-.13,19.91-16.28c19.71-16.11,37.17-4.41,45.93-12.06,6.89-6.02,13.09-13.09,23.4-12.56,8.9.45,17.39,8.16,19.33,17.03,3.12,14.24-8.12,27.55-22.54,26.91-6.28-.28-11.45-4.64-15-8.99-4.66-5.71-9.81-7.1-16.84-6.84-7.33.27-14.34-.42-20.68,3.8l-29.71,19.77-11.11,1.91-91.81-.07h0ZM441.81,271.94c-.02-5.43-2.21-8.45-5.97-10.3-3.37-1.65-6.7-.03-9.84,2.48-4.51,3.61-5.74,8.73-2.47,13.58,2.65,3.94,7.11,6.64,11.91,4.82,3.54-1.34,6.39-5.71,6.37-10.59h0Z"/>
    <path class="st1" d="M226.82,250.35c-1.28-4.56,5.94-6.98,14.58-7.13l51.87-.92,20.68-.42,43.55-33.5c3.79-2.91,8.9-6.14,9.56-11.34,1.41-10.99,7.55-21.55,18.96-24.4,10.27-2.56,19.92,4.01,24.01,13.11,3.32,7.4,2.52,14.48-2.72,20.99-7.67,9.51-21.17,11.4-32.53,5.22l-56.94,42.38-86.03.02c-2.33,0-4.53-2.39-4.99-4.02h0ZM398.45,199.07c1.75-2.53,2.58-5.02,1.56-7.88-.74-2.06-2.64-3.72-5.1-5.03-5.37-2.89-10.86-1.53-13.41,4.04-2.41,5.26-1.31,10.58,3.95,13.17,4.39,2.16,9.39.92,13-4.3h0Z"/>
    <path class="st2" d="M441.81,271.94c.02,4.88-2.83,9.25-6.37,10.59-4.8,1.81-9.26-.88-11.91-4.82-3.27-4.85-2.04-9.97,2.47-13.58,3.14-2.51,6.47-4.14,9.84-2.48,3.76,1.84,5.95,4.87,5.97,10.3h0Z"/>
    <path class="st2" d="M398.45,199.07c-3.61,5.23-8.6,6.46-13,4.3-5.27-2.59-6.36-7.91-3.95-13.17,2.55-5.57,8.04-6.93,13.41-4.04,2.45,1.32,4.36,2.97,5.1,5.03,1.02,2.86.19,5.34-1.56,7.88h0Z"/>
  </g>
</svg>